<svg xmlns="http://www.w3.org/2000/svg" viewBox="0 0 710.89 279.8"><defs><style>.cls-1{fill:#2d9af0;}.cls-2{fill:#222933;}</style></defs><title>Asset 6</title><g id="Layer_2" data-name="Layer 2"><g id="Layer_1-2" data-name="Layer 1"><path class="cls-1" d="M129,131.3c3.6-17.3-2.9-29.7-14.5-37.8-10.6-7.1-24-8.1-38.2-1.1l-59,26.6A29.17,29.17,0,1,0,41,172.3l7.8-3.6-12.7,69c-3.6,20.8,9.9,37.8,28.3,41.4,19.5,3.6,38.5-9.2,41.7-28.7Z"/><path class="cls-2" d="M665.67,88.4c-32.5-4.7-65.3,14.3-77.8,41.1l2.1-11.7c5.3-23.7-4.6-30-21.5-30h-21.9c-20.8,0-25.5,11.3-28,24.4l-25.5,141.4c-2.1,9.6-.7,26.2,18,26.2h30.4c18,0,21.5-14.1,24-27.6l12.3-67.9c2.9-15.5,5.3-23,10.6-28.7,8.1-9.2,24.4-13.4,35.7-4.2,6.7,5.6,9.2,15.2,7.4,28.7l-12.3,73.5c-2.7,16.3,4.2,26.2,17.7,26.2h30.4c17.3,0,20.8-13.4,23.3-27.6l17.8-92.1C716.67,126.9,705,94.1,665.67,88.4Z"/><ellipse class="cls-1" cx="470.77" cy="34.7" rx="35" ry="34.7"/><path class="cls-2" d="M473,252c-2.5,14.8-6.7,27.6-24,27.6h-30.7c-14.8,0-20.2-11-17.3-25.5L426.17,112c2.5-15.2,9.2-24.4,28-24.4h23.3c19.8,0,24.7,9.6,20.5,30Z"/><path class="cls-2" d="M135.17,87.6c7.8,9.2,17,20.5,12.3,48.1l-12,64.8,2.1,52c.4,18.8,9.6,26.9,25.1,26.9h39.6c12.3,0,17.7-9.6,22.6-21.5l30-73.9,3.2,70.7c.4,15.5,8.1,25.1,22.6,25.1h44.9c12.7,0,18-7.8,23.7-21.5l57.6-141.4c6.3-14.5,2.5-29-13.1-29h-28.7c-10.6,0-18,3.6-22.3,13.8l-38.9,94.6-3.6-84.5c-.7-18-9.2-24-19.5-24h-29.3c-11.7,0-18.4,4.6-21.9,13.4l-38.9,95.5-3.6-87c-.4-16.3-6-21.9-19.1-21.9h-32.8Z"/></g></g></svg>